<mxfile host="Electron" agent="Mozilla/5.0 (Windows NT 10.0; Win64; x64) AppleWebKit/537.36 (KHTML, like Gecko) draw.io/25.0.2 Chrome/128.0.6613.186 Electron/32.2.5 Safari/537.36" version="25.0.2">
  <diagram name="第 1 页" id="UbrAyQzMz6IzWjCTyQGP">
    <mxGraphModel dx="1084" dy="484" grid="1" gridSize="10" guides="1" tooltips="1" connect="1" arrows="1" fold="1" page="1" pageScale="1" pageWidth="827" pageHeight="1169" math="0" shadow="0">
      <root>
        <mxCell id="0" />
        <mxCell id="1" parent="0" />
        <mxCell id="yFoSML6obx_jLMxvS3iO-3" style="edgeStyle=orthogonalEdgeStyle;rounded=0;orthogonalLoop=1;jettySize=auto;html=1;exitX=1;exitY=0.5;exitDx=0;exitDy=0;entryX=0;entryY=0.5;entryDx=0;entryDy=0;" edge="1" parent="1" source="yFoSML6obx_jLMxvS3iO-1" target="yFoSML6obx_jLMxvS3iO-2">
          <mxGeometry relative="1" as="geometry">
            <mxPoint x="380" y="140" as="targetPoint" />
          </mxGeometry>
        </mxCell>
        <mxCell id="yFoSML6obx_jLMxvS3iO-1" value="&lt;font color=&quot;#ffffff&quot; style=&quot;font-size: 18px;&quot;&gt;GC Roots&lt;/font&gt;" style="rounded=0;whiteSpace=wrap;html=1;fillColor=#000000;" vertex="1" parent="1">
          <mxGeometry x="150" y="110" width="120" height="60" as="geometry" />
        </mxCell>
        <mxCell id="yFoSML6obx_jLMxvS3iO-8" style="edgeStyle=orthogonalEdgeStyle;rounded=0;orthogonalLoop=1;jettySize=auto;html=1;exitX=0.5;exitY=1;exitDx=0;exitDy=0;entryX=0.5;entryY=0;entryDx=0;entryDy=0;" edge="1" parent="1" source="yFoSML6obx_jLMxvS3iO-2" target="yFoSML6obx_jLMxvS3iO-4">
          <mxGeometry relative="1" as="geometry" />
        </mxCell>
        <mxCell id="yFoSML6obx_jLMxvS3iO-2" value="&lt;font style=&quot;font-size: 18px;&quot; color=&quot;#ffffff&quot;&gt;A&lt;/font&gt;" style="ellipse;whiteSpace=wrap;html=1;aspect=fixed;fillColor=#000000;" vertex="1" parent="1">
          <mxGeometry x="340" y="110" width="60" height="60" as="geometry" />
        </mxCell>
        <mxCell id="yFoSML6obx_jLMxvS3iO-9" style="rounded=0;orthogonalLoop=1;jettySize=auto;html=1;exitX=0;exitY=1;exitDx=0;exitDy=0;entryX=1;entryY=0;entryDx=0;entryDy=0;" edge="1" parent="1" source="yFoSML6obx_jLMxvS3iO-4" target="yFoSML6obx_jLMxvS3iO-5">
          <mxGeometry relative="1" as="geometry" />
        </mxCell>
        <mxCell id="yFoSML6obx_jLMxvS3iO-10" style="edgeStyle=none;rounded=0;orthogonalLoop=1;jettySize=auto;html=1;exitX=1;exitY=1;exitDx=0;exitDy=0;entryX=0;entryY=0;entryDx=0;entryDy=0;dashed=1;" edge="1" parent="1" source="yFoSML6obx_jLMxvS3iO-4" target="yFoSML6obx_jLMxvS3iO-7">
          <mxGeometry relative="1" as="geometry" />
        </mxCell>
        <mxCell id="yFoSML6obx_jLMxvS3iO-4" value="&lt;font style=&quot;font-size: 18px;&quot;&gt;B&lt;/font&gt;" style="ellipse;whiteSpace=wrap;html=1;aspect=fixed;fillColor=#B3B3B3;" vertex="1" parent="1">
          <mxGeometry x="340" y="230" width="60" height="60" as="geometry" />
        </mxCell>
        <mxCell id="yFoSML6obx_jLMxvS3iO-5" value="&lt;font style=&quot;font-size: 18px;&quot; color=&quot;#ffffff&quot;&gt;C&lt;/font&gt;" style="ellipse;whiteSpace=wrap;html=1;aspect=fixed;fillColor=#000000;" vertex="1" parent="1">
          <mxGeometry x="250" y="350" width="60" height="60" as="geometry" />
        </mxCell>
        <mxCell id="yFoSML6obx_jLMxvS3iO-7" value="&lt;font style=&quot;font-size: 18px;&quot;&gt;D&lt;/font&gt;" style="ellipse;whiteSpace=wrap;html=1;aspect=fixed;fillColor=#FFFFFF;" vertex="1" parent="1">
          <mxGeometry x="440" y="350" width="60" height="60" as="geometry" />
        </mxCell>
        <mxCell id="yFoSML6obx_jLMxvS3iO-11" value="" style="endArrow=classic;html=1;rounded=0;" edge="1" parent="1">
          <mxGeometry width="50" height="50" relative="1" as="geometry">
            <mxPoint x="530" y="164.5" as="sourcePoint" />
            <mxPoint x="600" y="164.5" as="targetPoint" />
          </mxGeometry>
        </mxCell>
        <mxCell id="yFoSML6obx_jLMxvS3iO-12" value="&lt;span style=&quot;font-size: 18px;&quot;&gt;已访问&lt;/span&gt;" style="text;html=1;align=center;verticalAlign=middle;whiteSpace=wrap;rounded=0;" vertex="1" parent="1">
          <mxGeometry x="460" y="150" width="60" height="30" as="geometry" />
        </mxCell>
        <mxCell id="yFoSML6obx_jLMxvS3iO-13" value="&lt;span style=&quot;font-size: 18px;&quot;&gt;未访问&lt;/span&gt;" style="text;html=1;align=center;verticalAlign=middle;whiteSpace=wrap;rounded=0;" vertex="1" parent="1">
          <mxGeometry x="460" y="210" width="60" height="30" as="geometry" />
        </mxCell>
        <mxCell id="yFoSML6obx_jLMxvS3iO-14" value="" style="endArrow=classic;html=1;rounded=0;dashed=1;" edge="1" parent="1">
          <mxGeometry width="50" height="50" relative="1" as="geometry">
            <mxPoint x="530" y="224.5" as="sourcePoint" />
            <mxPoint x="600" y="224.5" as="targetPoint" />
          </mxGeometry>
        </mxCell>
      </root>
    </mxGraphModel>
  </diagram>
</mxfile>
